# xmcd
#
# Track frame offsets:
#	150
#	17709
#	36244
#	52979
#	70183
#	84632
#	100988
#
# Disc length: 1860 seconds
#
# Revision: 1
# Processed by: cddbd v1.5.2PL0 Copyright (c) Steve Scherf et al.
# Submitted via: audiograbber 1.83.01
#
DISCID=54074207
DTITLE=Jan James - Promise Me
DYEAR=2000
DGENRE=Bluesrock
TTITLE0=Run
TTITLE1=Faith
TTITLE2=Promise Me
TTITLE3=Fall Back Down Again
TTITLE4=Do You Wanna Be Mine
TTITLE5=Love Will Come
TTITLE6=Help Me (Live In Denmark)
EXTD=
EXTT0=
EXTT1=
EXTT2=
EXTT3=
EXTT4=
EXTT5=
EXTT6=
PLAYORDER=
